<svg width="12" height="11" viewBox="0 0 12 11" fill="none" xmlns="http://www.w3.org/2000/svg">
    <path fill-rule="evenodd" clip-rule="evenodd"
        d="M4.49487 0.86934C5.16357 -0.28978 6.83643 -0.28978 7.50513 0.86934L11.7649 8.25318C12.4332 9.41166 11.5972 10.8593 10.2598 10.8593H1.74024C0.402845 10.8593 -0.433214 9.41166 0.235114 8.25318L4.49487 0.86934ZM6.62563 3.91035C6.62563 3.6104 6.38248 3.36725 6.08254 3.36725C5.7826 3.36725 5.53946 3.6104 5.53946 3.91035V6.3938C5.53946 6.69375 5.7826 6.93691 6.08254 6.93691C6.38248 6.93691 6.62563 6.69375 6.62563 6.3938V3.91035ZM6.08254 7.83746C5.7826 7.83746 5.53946 8.08062 5.53946 8.38056V8.38553C5.53946 8.68548 5.7826 8.92863 6.08254 8.92863H6.08689C6.38682 8.92863 6.62997 8.68548 6.62997 8.38553V8.38056C6.62997 8.08062 6.38682 7.83746 6.08689 7.83746H6.08254Z"
        fill="currentColor" />
</svg>