<svg width="18" height="14" viewBox="0 0 18 14" fill="none" xmlns="http://www.w3.org/2000/svg">
    <path fill-rule="evenodd" clip-rule="evenodd"
        d="M9.00124 1.375C5.41171 1.375 2.36432 3.70311 1.28975 6.93346C1.27493 6.97803 1.27494 7.02648 1.28979 7.07104C2.36569 10.2991 5.41192 12.625 8.99978 12.625C12.5893 12.625 15.6367 10.2969 16.7113 7.06654C16.7261 7.02197 16.7261 6.97352 16.7112 6.92896C15.6353 3.70094 12.5891 1.375 9.00124 1.375ZM0.103655 6.53891C1.34303 2.81309 4.85741 0.125 9.00124 0.125C13.1432 0.125 16.6562 2.8106 17.8971 6.53371C17.9974 6.8346 17.9975 7.16015 17.8974 7.46109C16.658 11.1869 13.1436 13.875 8.99978 13.875C4.85787 13.875 1.34484 11.1894 0.103928 7.46629C0.0036434 7.16541 0.00354793 6.83986 0.103655 6.53891ZM9.00057 5.125C7.96503 5.125 7.12557 5.96447 7.12557 7C7.12557 8.03553 7.96503 8.875 9.00057 8.875C10.0361 8.875 10.8756 8.03553 10.8756 7C10.8756 5.96447 10.0361 5.125 9.00057 5.125ZM5.87557 7C5.87557 5.27411 7.27468 3.875 9.00057 3.875C10.7265 3.875 12.1256 5.27411 12.1256 7C12.1256 8.72589 10.7265 10.125 9.00057 10.125C7.27468 10.125 5.87557 8.72589 5.87557 7Z"
        fill="currentColor" />
</svg>